<svg id="Capa_2" data-name="Capa 2" xmlns="http://www.w3.org/2000/svg" viewBox="0 0 902.95 698.2"><defs><style>.cls-1{fill:#407bff;}.cls-2{fill:#3f3d56;}.cls-3{fill:#f2f2f2;}.cls-4{fill:#2f2e41;}.cls-5{fill:#ffb8b8;}.cls-6{fill:#8985a8;}</style></defs><title>draw</title><ellipse class="cls-1" cx="379.71" cy="273.19" rx="124.34" ry="130.02"/><path class="cls-2" d="M405,382.67c-69.09,0-125.29-58.78-125.29-131s56.2-131,125.29-131,125.3,58.78,125.3,131S474.1,382.67,405,382.67Zm0-260c-68.14,0-123.38,57.77-123.38,129s55.24,129,123.38,129,123.38-57.77,123.38-129h0c-.07-71.22-55.27-128.94-123.38-129Z" transform="translate(-9.05 -1.46)"/><path class="cls-2" d="M784.72,442.53H9.05V1.46H784.72ZM11,440.53H782.81V3.46H11Z" transform="translate(-9.05 -1.46)"/><rect class="cls-3" x="25.82" y="35.01" width="170.25" height="18"/><rect class="cls-3" x="281.19" y="35.01" width="170.25" height="18"/><rect class="cls-3" x="536.56" y="35.01" width="170.25" height="18"/><path class="cls-2" d="M216.59,46.46H44.43v-20H216.59Zm-170.24-2H214.68v-16H46.35Z" transform="translate(-9.05 -1.46)"/><path class="cls-2" d="M472,46.46H299.8v-20H472Zm-170.24-2H470.05v-16H301.72Z" transform="translate(-9.05 -1.46)"/><path class="cls-2" d="M727.33,46.46H555.17v-20H727.33Zm-170.24-2H725.42v-16H557.09Z" transform="translate(-9.05 -1.46)"/><rect class="cls-4" x="111.4" y="682.85" width="791.55" height="2.55"/><polygon class="cls-2" points="376.36 483.58 436.62 361.56 452.88 371.56 384.01 488.58 376.36 483.58"/><path class="cls-1" d="M350.49,511.54s11.11,9.13,12.37-10.4a22.75,22.75,0,0,1,7.79-16.09c5-4.2,12.27-7.08,21-1.51,7.75,4.95,9.49,12.13,9.07,18.52a28.61,28.61,0,0,1-13.62,22.26c-8.63,5.36-22.26,9.4-36.58-3.78C350.49,520.54,341.89,510.54,350.49,511.54Z" transform="translate(-9.05 -1.46)"/><ellipse class="cls-5" cx="447.99" cy="196.81" rx="23.21" ry="24.27"/><path class="cls-5" d="M444.82,209.76s6.11,33.21,3.67,39.6,34.2-2.56,34.2-2.56-7.33-33.21-6.11-40.87S444.82,209.76,444.82,209.76Z" transform="translate(-9.05 -1.46)"/><polygon class="cls-5" points="395.47 323.27 397.91 357.76 410.04 411.92 413.79 426.74 419.9 403.74 413.79 351.37 411.72 327.79 395.47 323.27"/><path class="cls-5" d="M532.77,319.62v35.76s-3.66,46-11,57.48-9.77-46-9.77-46l5.74-42.16Z" transform="translate(-9.05 -1.46)"/><path class="cls-4" d="M424.06,430.75s-6.11,7.66-1.22,85.58-2.45,134.13,13.43,134.13c0,0-4.88,16.6,8.55,17.88s19.55,2.55,20.77-1.28,3.66-21.71,0-21.71c0,0,0,5.11,2.44-15.33s2.45-117.52,8.55-130.29L496.13,547s0,21.71,3.66,31.93,9.78,69,9.78,69l-1.23,8.94s29.32,5.11,30.54,0,1.22-12.77,0-15.33-1.22-2.55,1.22-7.66,2.45-8.94,1.23-12.77-1.23-86.87-1.23-86.87-2.44-100.91-17.1-106S424.06,430.75,424.06,430.75Z" transform="translate(-9.05 -1.46)"/><path class="cls-4" d="M439.94,658.12,430.17,676s-15.27-5.74-12.22,8.94c26.26,1.92,44.59-.63,44.59-.63s6.1,2.55,7.33-1.28-3.06-17.25-6.72-17.25S439.94,658.12,439.94,658.12Z" transform="translate(-9.05 -1.46)"/><path class="cls-4" d="M510.79,653s-9.78,23-6.11,24.27,36.64,6.39,39.09,7.66,14.66,2.56,15.88-5.1-6.11-10.22-6.11-10.22-13.44-2.56-17.1-15.33S510.79,653,510.79,653Z" transform="translate(-9.05 -1.46)"/><path class="cls-6" d="M485.13,243s-33-6.38-40.31,0S407,262.13,407,268.52s15.88,69,15.88,69-8.55,94.52,0,97.08,23.21-5.11,40.31,3.83,66-7.66,66-7.66S510.79,349,515.67,333.67s8.55-67.7,8.55-67.7S503.46,243,485.13,243Z" transform="translate(-9.05 -1.46)"/><path class="cls-6" d="M415.51,264.69,407,267.24s-18.33,60-11,62.59,28.1,7.67,30.54,7.67S415.51,264.69,415.51,264.69Z" transform="translate(-9.05 -1.46)"/><path class="cls-6" d="M504.68,258.3,524.22,266s25.66,49.81,19.55,56.2-33,12.77-33,12.77Z" transform="translate(-9.05 -1.46)"/><path class="cls-4" d="M456.33,168.29a12.38,12.38,0,0,0-5.8.27,14.88,14.88,0,0,0-4.13,2.83,48.41,48.41,0,0,1-7,4.88c-2,1.13-4.11,2.17-5.49,4a12.41,12.41,0,0,0-1.55,3.06,38.37,38.37,0,0,0-1.85,20,9.39,9.39,0,0,0,.82,2.75c1.27,2.44,4.07,3.41,6.43,4.69,4.49,2.44,7.89,6.53,11.56,10.16a23.35,23.35,0,0,0,4.57,3.68c5.25,3,11.66,2,17.56,1a3.24,3.24,0,0,0,3.15-3.32v0l4.65-21.87a36.64,36.64,0,0,0,1.19-9.95c-.32-5.31-3.07-12.66-6.79-16.43C469.25,169.61,462,168.92,456.33,168.29Z" transform="translate(-9.05 -1.46)"/><ellipse class="cls-1" cx="351.97" cy="681.11" rx="33.48" ry="2"/><ellipse class="cls-1" cx="344.32" cy="685.11" rx="33.48" ry="2"/><ellipse class="cls-1" cx="310.84" cy="673.11" rx="18.17" ry="1.09"/><ellipse class="cls-1" cx="375.88" cy="697.11" rx="18.17" ry="1.09"/></svg>