<?xml version="1.0" encoding="utf-8"?>
<!-- Generator: Adobe Illustrator 23.0.5, SVG Export Plug-In . SVG Version: 6.00 Build 0)  -->
<svg version="1.1" id="Capa_1" xmlns="http://www.w3.org/2000/svg" xmlns:xlink="http://www.w3.org/1999/xlink" x="0px" y="0px"
	 viewBox="0 0 1884.2 720.1" style="enable-background:new 0 0 1884.2 720.1;" xml:space="preserve">
<style type="text/css">
	.st0{fill:#F0F0F0;}
	.st1{fill:#F5F5F5;}
	.st2{fill:#E6E6E6;}
	.st3{fill:#FFFFFF;}
	.st4{fill:#E0E0E0;}
	.st5{fill:#EBEBEB;}
	.st6{fill:#FAFAFA;}
	.st7{display:none;}
	.st8{display:inline;}
	.st9{fill:#407BFF;}
	.st10{opacity:0.9;fill:#FFFFFF;enable-background:new    ;}
	.st11{opacity:0.3;fill:#FFFFFF;enable-background:new    ;}
	.st12{fill:#263238;}
	.st13{opacity:0.4;fill:#407BFF;enable-background:new    ;}
	.st14{opacity:0.1;fill:#407BFF;enable-background:new    ;}
	.st15{opacity:0.4;fill:#FFFFFF;enable-background:new    ;}
	.st16{opacity:0.3;enable-background:new    ;}
	.st17{opacity:0.6;fill:#407BFF;enable-background:new    ;}
	.st18{fill:#FF5652;}
	.st19{fill:#FF8B7B;}
	.st20{opacity:0.2;enable-background:new    ;}
	.st21{opacity:0.2;}
	.st22{opacity:0.5;fill:#FFFFFF;enable-background:new    ;}
	.st23{opacity:0.7;fill:#FFFFFF;enable-background:new    ;}
	.st24{opacity:0.79;fill:#AFC9F9;}
	.st25{opacity:0.79;}
	.st26{fill:#5370EA;}
	.st27{fill:#415CE5;}
	.st28{fill:#2C4CBF;}
	.st29{fill:#9CAAFF;}
</style>
<g id="Background_Complete">
	<g>
		<g>
			<g>
				<rect x="1695.7" y="362.2" class="st0" width="72.6" height="207.9"/>
				<rect x="1378.5" y="570.1" class="st0" width="375.9" height="14.7"/>
				<rect x="1364.6" y="362.2" class="st1" width="331.1" height="207.9"/>
				<rect x="1364.6" y="376.2" class="st0" width="332.4" height="76.1"/>
				<rect x="1364.6" y="466.2" class="st0" width="332.4" height="76.1"/>
				<rect x="1695.6" y="376.3" class="st2" width="12.6" height="76.1"/>
				<rect x="1695.6" y="466.3" class="st2" width="12.6" height="76.1"/>
			</g>
			<rect x="1354.9" y="349.3" class="st0" width="340.8" height="12.8"/>
			<rect x="1695.7" y="349.4" class="st2" width="82.8" height="12.8"/>
		</g>
		<g>
			<rect x="1611.4" y="86.4" class="st0" width="171" height="223.8"/>
			<rect x="1573.8" y="86.4" class="st1" width="202.1" height="223.8"/>
			<rect x="1590.7" y="104.2" class="st3" width="168.3" height="188.5"/>
			<g>
				<path class="st2" d="M1693.4,218.8l32.2-15.5v-9.8l-32.2-15.6v11.7l19.5,8.8l-19.5,8.8V218.8z"/>
				<path class="st2" d="M1672.5,173.4h-5.9l10.4,49.9h5.8L1672.5,173.4z"/>
				<path class="st2" d="M1656.2,207.1l-19.5-8.8l19.5-8.8v-11.7l-32.2,15.6v9.8l32.2,15.5V207.1z"/>
			</g>
		</g>
		<g>
			<rect x="1275.8" y="205" class="st0" width="11.2" height="379.8"/>
			<path class="st0" d="M1273.5,582.2l-0.3-1.6c0.1,0,3.1-0.7,5.3-4.8c2.9-5.4,4.7-16.8-3.4-40.8c-12.5-37-5-66.8,9.8-126.3
				c2.6-10.4,5.5-22.1,8.6-34.8c11.4-47.5,0.9-77-7.6-100.7c-6.6-18.4-11.8-32.9-5.1-49.7l1.5,0.6c-6.4,16.2-1.3,30.5,5.1,48.5
				c8.6,23.9,19.2,53.6,7.7,101.6c-3,12.7-6,24.4-8.6,34.8c-14.8,59.1-22.2,88.8-9.8,125.3c8.3,24.7,6.4,36.6,3.3,42.3
				C1277.2,581.4,1273.6,582.1,1273.5,582.2z"/>
			<polygon class="st0" points="1261.1,584.8 1301.7,584.8 1290.4,577.9 1272.4,577.9 			"/>
			<polygon class="st1" points="1201.2,253.4 1361.7,253.4 1344,112.9 1218.8,112.9 			"/>
		</g>
		<g>
			<polygon class="st0" points="1439.2,276.5 1524.9,276.5 1513.6,349.4 1450.5,349.4 			"/>
			<g>
				<path class="st4" d="M1473.6,300.2c23.4-8.8,41.3-22,21.2-48.8c-20-26.8-51-26.6-71.9-14.8c-26.6,15.1-21.3,58.8-21.3,58.8
					S1450.3,309,1473.6,300.2z"/>
				<path class="st2" d="M1496.3,275.9c-17.9-12.7-30.5-27.3-9.8-42.8s46.3-7.5,61.7,6.8c19.6,18.3,8.3,50.5,8.3,50.5
					S1514.2,288.5,1496.3,275.9z"/>
				<path class="st0" d="M1464.9,243.7c20.9-1.3,38.4-7,28.5-30.6s-35-30.2-54.6-26.1c-25,5.1-30.9,37.8-30.9,37.8
					S1444,245.1,1464.9,243.7z"/>
				<path class="st5" d="M1491.1,229.8c-17.4-5.8-31-14.6-17.8-32.3s35.8-17.6,51.6-9.8c20.1,10,18.3,38.9,18.3,38.9
					S1508.5,235.6,1491.1,229.8z"/>
				<path class="st1" d="M1458.5,199.6c17.4,6,33.3,7.3,32.6-15.2s-19-36.2-36.1-39.5c-21.9-4.2-36.8,20.2-36.8,20.2
					S1441.2,193.7,1458.5,199.6z"/>
				<path class="st6" d="M1502.5,190c-12.4,0.9-23.2-1.1-19.1-15.8s18.4-20.6,30.3-19.7c15.1,1,21,19.8,21,19.8
					S1515,189.1,1502.5,190z"/>
			</g>
		</g>
	</g>
</g>
<g id="Background_Simple" class="st7">
	<g class="st8">
		<path class="st9" d="M1128.3,383.5c-42.3,0.6-104.8,32.9-130.8-7.7c-21.8-34.1,3.4-67.5-37-92.6c-29.4-18.4-77.1-50.5-32.8-83.9
			c34.7-26.1,88.8-33.3,130.8-27.3c33,4.7,101.5,24.3,109.8,58.9c9.3,38.9-51.1,71,13.5,85.6c38.9,8.8,85.7,31.4,58.3,77.9
			c-10.8,18.4-26.3,15.2-42.7,7.9C1173.4,391.6,1157.4,383.1,1128.3,383.5z"/>
		<path class="st10" d="M1128.3,383.5c-42.3,0.6-104.8,32.9-130.8-7.7c-21.8-34.1,3.4-67.5-37-92.6c-29.4-18.4-77.1-50.5-32.8-83.9
			c34.7-26.1,88.8-33.3,130.8-27.3c33,4.7,101.5,24.3,109.8,58.9c9.3,38.9-51.1,71,13.5,85.6c38.9,8.8,85.7,31.4,58.3,77.9
			c-10.8,18.4-26.3,15.2-42.7,7.9C1173.4,391.6,1157.4,383.1,1128.3,383.5z"/>
	</g>
</g>
<g id="Shadow_1_">
</g>
<g id="Desk">
	<g>
		<g>
			<rect x="1215.8" y="367.2" class="st9" width="540.7" height="20.2"/>
			<rect x="1215.8" y="367.2" class="st11" width="144.7" height="20.2"/>
			<polygon class="st9" points="1362.8,387.4 1350.2,387.4 1356.8,640.6 1362.8,640.6 1368.8,640.6 1375.4,387.4 			"/>
			<polygon class="st11" points="1356.8,640.6 1362.8,640.6 1362.8,392.8 1350.4,395.2 			"/>
			<polygon class="st9" points="1243.5,387.4 1230.9,387.4 1237.5,640.6 1243.5,640.6 1249.5,640.6 1256.1,387.4 			"/>
			<polygon class="st11" points="1237.5,640.6 1243.5,640.6 1243.5,392.8 1231.1,395.2 			"/>
			<polygon class="st9" points="1728.8,387.4 1716.2,387.4 1722.8,640.6 1728.8,640.6 1734.8,640.6 1741.4,387.4 			"/>
			<polygon class="st11" points="1722.8,640.6 1728.8,640.6 1728.8,392.8 1716.4,395.2 			"/>
			<polygon class="st9" points="1609.5,387.4 1596.9,387.4 1603.5,640.6 1609.5,640.6 1615.5,640.6 1622.1,387.4 			"/>
			<polygon class="st11" points="1603.5,640.6 1609.5,640.6 1609.5,392.8 1597.1,395.2 			"/>
		</g>
		<g>
			<path class="st12" d="M1472.5,259h-128.6c-4.6,0-7.6,3.9-6.6,8.7l17.1,85.1c1,4.8,5.5,8.7,10.2,8.7h128.6c4.6,0,7.6-3.9,6.6-8.7
				l-17.1-85.1C1481.6,263,1477.1,259,1472.5,259z"/>
			<path class="st3" d="M1365.7,356.8c-3,0-6.2-2.8-6.9-6l-17.1-85.1c-0.3-1.3-0.1-2.5,0.6-3.3c0.6-0.8,1.6-1.2,2.8-1.2h128.6
				c3,0,6.2,2.8,6.9,6l17.1,85.1c0.3,1.3,0.1,2.5-0.6,3.3c-0.6,0.8-1.6,1.2-2.8,1.2H1365.7z"/>
			<path class="st13" d="M1462.7,350l-16.2-80.6c-0.4-2,1.1-4,3.1-4h20.9c1.5,0,2.8,1.1,3.1,2.6l16.2,80.6c0.4,2-1.1,4-3.1,4h-20.9
				C1464.3,352.6,1463,351.5,1462.7,350z"/>
			<g>
				<polygon class="st9" points="1352.4,272.4 1351.7,268.9 1377.5,268.9 1378.2,272.4 				"/>
				<polygon class="st5" points="1364.3,281.1 1363.6,277.6 1408.8,277.6 1409.5,281.1 				"/>
				<polygon class="st5" points="1366.7,289.7 1366,286.2 1416.6,286.2 1417.3,289.7 				"/>
				<polygon class="st5" points="1369,298.4 1368.3,294.9 1409.1,294.9 1409.8,298.4 				"/>
			</g>
			<g>
				<polygon class="st9" points="1360.2,312.5 1359.5,309 1375.8,309 1376.5,312.5 				"/>
				<polygon class="st5" points="1372.1,321.1 1371.4,317.7 1391.3,317.7 1392,321.1 				"/>
				<polygon class="st5" points="1396.7,321.1 1396,317.7 1415.9,317.7 1416.6,321.1 				"/>
				<polygon class="st5" points="1374.5,329.8 1373.8,326.3 1440.9,326.3 1441.6,329.8 				"/>
				<polygon class="st5" points="1376.9,338.5 1376.2,335 1427.4,335 1428.1,338.5 				"/>
			</g>
			<path class="st12" d="M1532.5,361.1h-169.3c-4.6,0-7.6,2.7-6.6,6.1h186.1C1541.7,363.9,1537.1,361.1,1532.5,361.1z"/>
		</g>
		<g>
			<path class="st14" d="M1307.6,237.5l-16.2-80.6c-0.4-2,1.1-4,3.1-4H1426c1.5,0,2.8,1.1,3.1,2.6l16.2,80.6c0.4,2-1.1,4-3.1,4
				h-131.5C1309.2,240.1,1307.9,239.1,1307.6,237.5z"/>
			<g>
				<g>
					<g>
						<polygon class="st9" points="1354.4,155.6 1326.8,155.6 1326.2,152.5 1353.7,152.5 						"/>
						<polygon class="st13" points="1349.9,160.5 1338.8,160.5 1338.2,157.4 1349.3,157.4 						"/>
						<polygon class="st13" points="1368.3,160.5 1351.2,160.5 1350.6,157.4 1367.7,157.4 						"/>
						<polygon class="st13" points="1375.7,165.5 1339.8,165.5 1339.2,162.4 1375.1,162.4 						"/>
						<polygon class="st13" points="1371.2,170.4 1340.8,170.4 1340.2,167.3 1370.5,167.3 						"/>
					</g>
					<polygon class="st13" points="1391.3,222.8 1372,222.8 1372.6,225.9 1391.9,225.9 					"/>
					<g>
						<polygon class="st9" points="1367.2,216 1338.9,216 1338.2,212.9 1366.6,212.9 						"/>
						<polygon class="st13" points="1378.6,227.7 1352.2,227.7 1352.9,230.8 1379.2,230.8 						"/>
						<polygon class="st13" points="1370.6,222.8 1351.3,222.8 1351.9,225.9 1371.2,225.9 						"/>
						<polygon class="st13" points="1389,217.9 1350.3,217.9 1350.9,220.9 1389.6,220.9 						"/>
					</g>
					<g>
						<polygon class="st9" points="1353.4,132.6 1322.2,132.6 1321.5,129.5 1352.8,129.5 						"/>
						<polygon class="st13" points="1368.8,144.3 1334.4,144.3 1335,147.4 1369.4,147.4 						"/>
						<polygon class="st13" points="1361.9,139.4 1333.4,139.4 1334,142.5 1362.5,142.5 						"/>
						<polygon class="st13" points="1363.8,134.4 1332.4,134.4 1333,137.5 1364.4,137.5 						"/>
					</g>
					<g>
						<polygon class="st9" points="1353,178.4 1331.3,178.4 1330.7,175.3 1352.4,175.3 						"/>
						<polygon class="st13" points="1387.1,190.1 1344.7,190.1 1345.3,193.2 1387.7,193.2 						"/>
						<polygon class="st13" points="1361.3,185.2 1343.7,185.2 1344.4,188.3 1361.9,188.3 						"/>
						<polygon class="st13" points="1380.4,185.2 1362.8,185.2 1363.4,188.3 1381,188.3 						"/>
						<polygon class="st13" points="1381.4,180.3 1342.7,180.3 1343.4,183.3 1382.1,183.3 						"/>
						<polygon class="st13" points="1381.4,204.9 1347.7,204.9 1348.3,208 1382,208 						"/>
						<polygon class="st13" points="1356.5,200 1346.7,200 1347.3,203.1 1357.1,203.1 						"/>
						<polygon class="st13" points="1371.8,200 1357.8,200 1358.5,203.1 1372.4,203.1 						"/>
						<polygon class="st13" points="1384.4,195 1345.7,195 1346.3,198.1 1385,198.1 						"/>
					</g>
				</g>
				<g>
					<g>
						<polygon class="st13" points="1414.9,194.2 1401,194.2 1400.4,191.1 1414.3,191.1 						"/>
						<polygon class="st13" points="1438,194.2 1416.6,194.2 1416,191.1 1437.3,191.1 						"/>
						<polygon class="st13" points="1447,199.1 1402,199.1 1401.4,196.1 1446.4,196.1 						"/>
						<polygon class="st13" points="1441,204.1 1403,204.1 1402.4,201 1440.4,201 						"/>
					</g>
					<g>
						<polygon class="st13" points="1458.1,174.6 1415,174.6 1415.6,177.7 1458.7,177.7 						"/>
						<polygon class="st13" points="1449.7,169.7 1414,169.7 1414.6,172.8 1450.3,172.8 						"/>
						<polygon class="st9" points="1443.2,164.7 1403.9,164.7 1404.5,167.8 1443.9,167.8 						"/>
					</g>
					<g>
						<polygon class="st13" points="1460,223.8 1406.9,223.8 1407.6,226.9 1460.6,226.9 						"/>
						<polygon class="st13" points="1427.9,218.9 1406,218.9 1406.6,222 1428.6,222 						"/>
						<polygon class="st13" points="1451.8,218.9 1429.8,218.9 1430.4,222 1452.4,222 						"/>
						<polygon class="st13" points="1453.4,213.9 1405,213.9 1405.6,217 1454,217 						"/>
						<polygon class="st13" points="1452.1,238.6 1409.9,238.6 1410.5,241.7 1452.7,241.7 						"/>
						<polygon class="st13" points="1421.2,233.7 1408.9,233.7 1409.5,236.7 1421.8,236.7 						"/>
						<polygon class="st13" points="1440.4,233.7 1422.9,233.7 1423.5,236.7 1441,236.7 						"/>
						<polygon class="st13" points="1456.4,228.7 1407.9,228.7 1408.5,231.8 1457,231.8 						"/>
					</g>
				</g>
				<g>
					<polygon class="st13" points="1327.4,242.4 1294.4,242.4 1295,245.5 1328,245.5 					"/>
					<polygon class="st13" points="1317.6,237.5 1293.4,237.5 1294,240.6 1318.2,240.6 					"/>
					<polygon class="st13" points="1343.5,237.5 1319.3,237.5 1319.9,240.6 1344.2,240.6 					"/>
					<polygon class="st13" points="1340.8,232.6 1292.4,232.6 1293,235.6 1341.4,235.6 					"/>
				</g>
			</g>
		</g>
		<g>
			<polygon class="st9" points="1711.4,335 1691,335 1693.4,367.2 1709,367.2 			"/>
			<polygon class="st15" points="1711.4,335 1691,335 1693.4,367.2 1709,367.2 			"/>
		</g>
		<g>
			<polygon class="st12" points="1266.1,312.6 1295.5,312.6 1285.5,367.2 1256.1,367.2 			"/>
			<polygon class="st9" points="1303.6,298 1262.1,298 1273.7,367.2 1315.2,367.2 			"/>
			<g>
				<polygon class="st9" points="1259.6,298 1262.1,298 1273.7,367.2 1271.2,367.2 				"/>
				<polygon class="st16" points="1259.6,298 1262.1,298 1273.7,367.2 1271.2,367.2 				"/>
			</g>
			<polygon class="st3" points="1279.6,359.8 1270.5,305.4 1297.6,305.4 1306.7,359.8 			"/>
			<polygon class="st17" points="1305.4,359.8 1296.3,305.4 1297.6,305.4 1306.7,359.8 			"/>
		</g>
	</g>
</g>
<g id="Character_1_">
	<g>
		<g>
			<path class="st12" d="M1509,209.6c0.6,1.3,0.4,2.7-0.4,3.1c-0.8,0.4-2-0.3-2.6-1.7c-0.6-1.3-0.4-2.7,0.4-3.1
				C1507.3,207.5,1508.4,208.2,1509,209.6z"/>
			<path class="st18" d="M1509.5,212.2c0,0,0.5,9.1-1,14.3c3.2,1.1,6.6-1.7,6.6-1.7L1509.5,212.2z"/>
			<path class="st12" d="M1509.2,198.7c-0.1,0.1-0.3,0.2-0.5,0.2c-3.6,0.2-5.2,2.9-5.2,3c-0.2,0.4-0.7,0.5-1.1,0.3s-0.5-0.8-0.3-1.2
				c0.1-0.1,2-3.6,6.6-3.8c0.5,0,0.8,0.3,0.9,0.8C1509.5,198.2,1509.4,198.5,1509.2,198.7z"/>
			<path class="st19" d="M1555.9,207.6c4.9,17.7,10.4,31.5,17.1,39.3c0,0,0.1,13.9-22.7,20.6c-25.1,7.3-15.5-9.5-15.5-9.5
				c12.8-7.4,11.5-18.5,1.9-22.8L1555.9,207.6z"/>
			<path class="st12" d="M1578.3,243.5c-0.5-6.5-1-13.9-4.9-14.1c-4.2-0.2-28.7,11.2-34,19.2c-5.2,8,5,15.9,5,15.9L1578.3,243.5z"/>
			<g>
				<path class="st19" d="M1528.2,343.9l-21.2-0.7l0.4,18.5c0,0,18.5-2,19.3-7L1528.2,343.9z"/>
				<polygon class="st19" points="1495.8,352.2 1493.6,361.6 1507.4,361.6 1507,343.1 				"/>
				<g>
					<path class="st9" d="M1613.1,267.1l-0.4,4.7c-0.1,1.5-0.3,3-0.5,4.5c-0.4,3-0.8,6-1.3,9c-1,6-2.2,11.9-3.6,17.9
						c-1.5,6-3.1,12-5.3,18c-1.1,3-2.2,6.1-3.6,9.2s-2.8,6.2-4.8,9.4c-0.4,0.8-1,1.6-1.5,2.4s-1,1.6-1.7,2.4
						c-0.6,0.8-1.1,1.6-1.9,2.4l-1,1.2c-0.3,0.4-0.7,0.8-1.2,1.3c-3.7,3.8-7.5,6.1-11,7.7c-7.1,3.2-13.5,4.5-19.8,5.2
						c-3.1,0.4-6.2,0.5-9.2,0.6s-6,0-9-0.2c-3-0.1-5.9-0.4-8.8-0.8c-3-0.4-5.7-0.8-8.8-1.5l0.5-17.3c10.2-2.1,20.9-4.3,30.1-7.5
						c2.3-0.8,4.5-1.7,6.5-2.6s3.8-1.9,5.1-2.9c1.3-1,2.2-2,2.3-2.4l0.5-0.8c0.2-0.2,0.4-0.7,0.6-1s0.4-0.7,0.6-1.2
						c0.2-0.4,0.4-0.8,0.6-1.3c1.7-3.7,3.3-8.3,4.6-13.1c1.3-4.9,2.5-10,3.5-15.2c1.1-5.2,1.9-10.6,2.8-15.9l1.2-8.1l1.1-7.8
						L1613.1,267.1z"/>
					<path class="st20" d="M1613.1,267.1l-0.4,4.7c-0.1,1.5-0.3,3-0.5,4.5c-0.4,3-0.8,6-1.3,9c-1,6-2.2,11.9-3.6,17.9
						c-1.5,6-3.1,12-5.3,18c-1.1,3-2.2,6.1-3.6,9.2s-2.8,6.2-4.8,9.4c-0.4,0.8-1,1.6-1.5,2.4s-1,1.6-1.7,2.4
						c-0.6,0.8-1.1,1.6-1.9,2.4l-1,1.2c-0.3,0.4-0.7,0.8-1.2,1.3c-3.7,3.8-7.5,6.1-11,7.7c-7.1,3.2-13.5,4.5-19.8,5.2
						c-3.1,0.4-6.2,0.5-9.2,0.6s-6,0-9-0.2c-3-0.1-5.9-0.4-8.8-0.8c-3-0.4-5.7-0.8-8.8-1.5l0.5-17.3c10.2-2.1,20.9-4.3,30.1-7.5
						c2.3-0.8,4.5-1.7,6.5-2.6s3.8-1.9,5.1-2.9c1.3-1,2.2-2,2.3-2.4l0.5-0.8c0.2-0.2,0.4-0.7,0.6-1s0.4-0.7,0.6-1.2
						c0.2-0.4,0.4-0.8,0.6-1.3c1.7-3.7,3.3-8.3,4.6-13.1c1.3-4.9,2.5-10,3.5-15.2c1.1-5.2,1.9-10.6,2.8-15.9l1.2-8.1l1.1-7.8
						L1613.1,267.1z"/>
				</g>
			</g>
			<g>
				<path class="st9" d="M1519.1,289.1c5.1,22.2,11.7,59.4,13.3,108h93.2c0.5-12-1.4-79.5-10.8-128.4c-3.6-18.6-21.1-30.6-38.8-26.5
					c-0.1,0-0.3,0.1-0.4,0.1c-11.6,2.8-28.3,7.2-38.2,11.1c-0.1,0.1-0.3,0.1-0.4,0.2C1523.3,259,1515.7,274.3,1519.1,289.1z"/>
			</g>
			<path class="st20" d="M1525.2,320.2c0.7,4.7,1.5,9.6,2.2,14.8c7.6-8.3,10-33.7,10-33.7L1525.2,320.2z"/>
			<g>
				<path class="st19" d="M1447.8,345.1l-21.1-2.1l-0.7,18.5c0,0,10.9,3.7,19.7-5.8L1447.8,345.1z"/>
				<polygon class="st19" points="1416.6,348.4 1409.8,361.1 1426,361.4 1426.7,343 				"/>
				<path class="st9" d="M1554.1,280.7c-1.5,2.9-2.8,5.5-4.2,8.1c-1.4,2.6-2.9,5.2-4.4,7.8c-3,5.2-6.1,10.2-9.4,15.3
					c-6.5,10-13.6,19.8-21.8,29.2c-4.1,4.7-8.6,9.3-13.8,13.7c-0.6,0.6-1.4,1.1-2,1.6c-0.7,0.5-1.3,1-2.3,1.7
					c-0.9,0.6-1.9,1.2-2.8,1.7c-0.9,0.6-1.9,1-2.8,1.4c-3.8,1.7-7.4,2.8-11,3.5c-7.1,1.3-13.6,1.2-19.9,0.5
					c-3.1-0.4-6.2-0.9-9.2-1.7c-1.5-0.4-3-0.8-4.5-1.2c-1.5-0.5-2.9-1-4.6-1.6l2.6-17.1c10-1.4,20.8-3.2,28.2-6.7
					c1.9-0.8,3.5-1.8,4.6-2.8c0.6-0.5,1.1-0.9,1.5-1.4c0.1-0.1,0.6-0.6,1-1s0.8-0.7,1.2-1.1c3.2-3.2,6.4-7.1,9.6-11.2
					c6.3-8.3,12.2-17.4,17.9-26.8c2.9-4.7,5.7-9.5,8.4-14.2l4.1-7.2l4-7.1L1554.1,280.7z"/>
			</g>
			<polygon class="st19" points="1528.5,626.6 1511.1,626.6 1502.4,584.6 1519.8,584.6 			"/>
			<path class="st12" d="M1510.1,622.7h19.6c0.7,0,1.3,0.5,1.5,1.2l3.4,16.1c0.4,1.7-0.9,3.3-2.6,3.2c-6.8-0.1-10.2-0.5-18.8-0.5
				c-5.3,0-12.1,0.6-19.4,0.6c-7.2,0-8.3-7.5-5.3-8.2c13.4-3.1,14.4-7.3,18.7-11.3C1508.1,623.1,1509.1,622.7,1510.1,622.7z"/>
			<g class="st21">
				<polygon points="1519.8,584.6 1502.4,584.6 1507.2,607.8 1524.3,606.2 				"/>
			</g>
			<path class="st19" d="M1550.3,186.2c6.3,16.8,10.8,26.3,6.6,38.4c-6.3,18.3-29,20.2-39.9,5.7c-9.9-13-18.5-38.3-6-52.2
				C1523.2,164.6,1544,169.5,1550.3,186.2z"/>
			<path class="st12" d="M1519.7,211.4c-2.6,3.7-4.6,6.4-4.6,6.4s-5.4-13.9-3.3-20.2c-2.6-5.4-7.9,2.6-9.9-7.9s6.6-21.8,9.9-24.1
				c0.5,0.8,0.4,3.8,0.4,3.8s12.9-11.9,31.2-10.3c-1.3,1.3-1.7,4.9-1.7,4.9s18.9,3.4,23.2,14.5c-2.7-1.4-4.8-1.7-4.8-1.7
				s5.4,7,3.8,17.8s-2.3,22.7-2.1,27.4c0.2,4.7-12.2,13.7-19.8,4.1C1534.5,216.2,1519.7,211.4,1519.7,211.4z"/>
			<path class="st19" d="M1527.6,207.8c1.1,4.1,0.5,8.5-0.8,11.8c-2,4.9-6.2,3.8-8.2-0.6c-1.9-3.9-3-11.1,0.2-14.6
				C1522.1,201,1526.4,203.1,1527.6,207.8z"/>
			<g>
				<path class="st9" d="M1560.3,397.1c0,0-80.9,30.5-83.3,71c-4.4,74.5,24.9,133.4,24.9,133.4l26.8-3c0,0-4.8-24-8.3-91.4
					c-4.5-84.8,133.7,2,105.2-110H1560.3z"/>
				<path class="st22" d="M1560.3,397.1c0,0-80.9,30.5-83.3,71c-4.4,74.5,24.9,133.4,24.9,133.4l26.8-3c0,0-4.8-24-8.3-91.4
					c-4.5-84.8,133.7,2,105.2-110H1560.3z"/>
			</g>
			<path class="st9" d="M1494.5,591.2c-0.1,0,4.3,12.4,4.3,12.4l33.5-3.4l-1.7-11.3L1494.5,591.2z"/>
			<g>
				<polygon class="st19" points="1453.3,628.6 1435.9,628.6 1430.8,586.6 1448.2,586.6 				"/>
				<path class="st12" d="M1435.7,622.7h19c0.7,0,1.3,0.5,1.5,1.2l3.5,16.1c0.4,1.7-0.9,3.3-2.5,3.2c-6.9-0.1-16.8-0.5-25.4-0.5
					c-10.1,0-12,0.6-23.8,0.6c-7.2,0-9.1-7.5-6.2-8.2c13.6-3.1,18-3.5,29.7-11C1432.8,623.3,1434.2,622.7,1435.7,622.7z"/>
				<polygon class="st20" points="1430.8,586.6 1433.5,609.5 1450.8,608.3 1448.2,586.6 				"/>
			</g>
			<g>
				<path class="st9" d="M1532.4,397.1c0,0-132.6,12.2-131.1,81.6c1.5,72.1,27.4,120.8,27.4,120.8h25.9c0,0-4.9-37.4-4-108.4
					c0.3-21.3,41.5-28.3,81.8-30.8c34.8-2.1,67.4-22.8,80.9-56.3l2.8-6.9L1532.4,397.1L1532.4,397.1z"/>
				<path class="st22" d="M1532.4,397.1c0,0-132.6,12.2-131.1,81.6c1.5,72.1,27.4,120.8,27.4,120.8h25.9c0,0-4.9-37.4-4-108.4
					c0.3-21.3,41.5-28.3,81.8-30.8c34.8-2.1,67.4-22.8,80.9-56.3l2.8-6.9L1532.4,397.1L1532.4,397.1z"/>
			</g>
			<path class="st9" d="M1422.6,592.1c-0.1,0,4.4,12.5,4.4,12.5l31.2-2.3l-1.8-11.3L1422.6,592.1z"/>
		</g>
		<g>
			<g>
				<path class="st12" d="M1567.2,319.1l-16.8,67.5c-4.3,17.2-6.5,35-6.5,52.9v31.4c0,7.9,5.6,14.3,12.5,14.3h86.2
					c6.9,0,12.5-6.4,12.5-14.3v-31.4c0-17.9,2.2-35.7,6.5-52.9l14.9-59.6c2.3-9.2-3.7-18.3-12-18.3h-85.2
					C1573.6,308.7,1568.7,313,1567.2,319.1z"/>
				<path class="st12" d="M1460,452.6l2.8,16.7c1.5,8.8,8.9,15.9,16.6,15.9h95.8c7.7,0,12.7-7.1,11.2-15.9l-2.8-16.7
					c-1.7-10-10.2-18.1-18.9-18.1h-92C1464,434.5,1458.3,442.6,1460,452.6z"/>
			</g>
			<g>
				<polygon class="st9" points="1584.5,502.1 1534.3,502.1 1529.4,485.3 1589.4,485.3 				"/>
				<g>
					<rect x="1550.4" y="502.1" class="st9" width="17.9" height="125"/>
					<polygon class="st23" points="1568.3,627.1 1550.4,627.1 1550.4,505.1 1568.3,507 					"/>
					<polygon class="st23" points="1564,627.1 1559.7,627.1 1559.7,506.1 1564,506.5 					"/>
				</g>
				<path class="st9" d="M1600.6,646.4h-82.5c-2.2,0-3.1-2.9-1.3-4.3l13.1-10c6.3-4.8,13.9-7.4,21.7-7.4h15.7
					c7.8,0,15.4,2.6,21.7,7.4l13.1,10C1603.7,643.4,1602.8,646.4,1600.6,646.4z"/>
			</g>
		</g>
	</g>
</g>
<g id="Capa_6">
</g>
<path class="st24" d="M535.7,73.1"/>
<g class="st25">
	<path class="st26" d="M289.8,171c0,0,14.9-9.5,8.9-32.1c-6-22.6-22-2.2-29-20.4s-49-41.2-48-10.2C221.6,108.3,281,140.7,289.8,171z
		"/>
</g>
<g class="st25">
	<path class="st26" d="M289.8,171c0,0-38,13.4-41.2-17.1c-3.1-30.5-61-22.6-27-45.6C221.6,108.3,277,137.7,289.8,171z"/>
</g>
<g class="st25">
	<rect x="215.6" y="252.5" class="st27" width="434.9" height="10.1"/>
</g>
<g class="st25">
	<rect x="591.7" y="141.9" class="st26" width="29.4" height="110.6"/>
</g>
<g class="st25">
	<g>
		<path class="st28" d="M501.1,252.1V126.3h-29.4v126.2h29.1C500.9,252.4,501,252.3,501.1,252.1z M472.7,251.5V127.3h27.4v124.2
			H472.7z"/>
	</g>
</g>
<g class="st25">
	<rect x="479" y="153.9" class="st27" width="14.7" height="73.4"/>
</g>
<g class="st25">
	<rect x="471.7" y="134" class="st27" width="29.4" height="10"/>
</g>
<g class="st25">
	<rect x="471.7" y="234.6" class="st27" width="29.4" height="10"/>
</g>
<g class="st25">
	<polygon class="st27" points="573.6,166.1 566.3,155.9 558.9,166.1 558.9,117.7 573.6,117.7 	"/>
</g>
<g class="st25">
	<g>
		<path class="st27" d="M591.7,251.9V118.5h-36.1v134H591C591.2,252.3,591.5,252.1,591.7,251.9z M556.6,251.5v-132h34.1v132H556.6z"
			/>
	</g>
</g>
<g class="st25">
	<rect x="429.5" y="118.5" class="st27" width="36.1" height="134"/>
</g>
<g class="st25">
	<rect x="405.6" y="149.6" class="st26" width="23.9" height="102.9"/>
</g>
<g class="st25">
	<rect x="429.5" y="134.2" class="st29" width="36.1" height="15.4"/>
</g>
<g class="st25">
	<g>
		<path class="st27" d="M528.1,253.8l27.4-107.1l-24.3-6.2l-27.5,107.2l24.2,6.2C528.1,253.9,528.1,253.9,528.1,253.8z M532,141.8
			l22.3,5.7l-27,105.2l-22.3-5.7L532,141.8z"/>
	</g>
</g>
<g class="st25">
	<g>
		<path class="st27" d="M549.4,170.9l3.1-12l-24.3-6.2l-3.1,12.1l24.2,6.2C549.3,171,549.3,171,549.4,170.9z M528.9,153.9l22.3,5.7
			l-2.6,10.2l-22.3-5.7L528.9,153.9z"/>
	</g>
</g>
<g class="st25">
	<path class="st27" d="M323.8,253.5H297c-15.4,0-27.9-12.5-27.9-27.9v-29.5h82.5v29.5C351.6,241.1,339.1,253.5,323.8,253.5z
		 M271.1,198.2v27.5c0,14.3,11.6,25.9,25.9,25.9h26.8c14.3,0,25.9-11.6,25.9-25.9v-27.5H271.1z"/>
</g>
<g class="st25">
	<path class="st27" d="M297.7,197.4c-0.1-0.5-7.1-50.9-62.7-78.7l0.9-1.8c56.6,28.3,63.7,79.7,63.8,80.3L297.7,197.4z"/>
</g>
<g class="st25">
	<path class="st27" d="M310.7,194.8c0-0.3,0.1-0.6,0.1-1c-0.1-0.5-0.1-1.1-0.1-1.7c-0.5-8.2,0.4-27.4,13.8-59.8l-1.8-0.8
		c-18.9,45.5-13.5,65-13.3,65.8l1.3,4.5l0.6-4.6c0,0,0,0,0,0c-0.1-0.2-0.2-0.4-0.3-0.6C310.8,196.2,310.7,195.5,310.7,194.8z"/>
</g>
<g class="st25">
	<path class="st26" d="M310.9,174c0,0,24.8,3.5,27.8-20.1c3-23.6-9-20.1,6-35.3s18-8.2,6-20.2s-25.5-22.5-39.7-5.2
		c-14.3,17.2-24.2,22.7-12.2,36c12,13.2,3.9,19.8,0,28.4C294.8,166.1,310.9,174,310.9,174z"/>
</g>
<g class="st25">
	<path class="st27" d="M289.4,171.3c-0.2-0.4-24-44.4-57.6-53l0.2-1c34,8.7,58,53.1,58.3,53.5L289.4,171.3z"/>
</g>
<g class="st25">
	<path class="st27" d="M264.1,147.4c-4.1,0-9.9-1.7-17.3-8l0.6-0.8c14.5,12.4,22.4,6.6,23.5,5.6c1-14.8-10.4-25.9-10.5-26.1l0.7-0.7
		c0.1,0.1,11.9,11.7,10.8,27l0,0.2l-0.1,0.1C271.6,144.9,269,147.4,264.1,147.4z"/>
</g>
<g class="st25">
	<path class="st27" d="M287,166.5l-1-0.2c2.4-14.7-8-27-8.1-27.1l0.8-0.7C278.8,138.7,289.5,151.3,287,166.5z"/>
</g>
<g class="st25">
	<path class="st27" d="M241.6,133.1c-4.9,0-10.5-1.5-15.4-6.4l0.7-0.7c11,11,25.5,3.9,27.6,2.8c-0.1-1.9-1.1-12.4-11.8-20.1l0.6-0.8
		c12.2,8.7,12.2,21,12.2,21.2l0,0.3l-0.2,0.1C255.3,129.6,249.2,133.1,241.6,133.1z"/>
</g>
<g class="st25">
	<path class="st27" d="M284.5,164.4c-3.9,0-12.1-1-18.7-8.3l0.7-0.7c8.7,9.6,20,7.9,20.2,7.9l0.2,1
		C286.8,164.3,286,164.4,284.5,164.4z"/>
</g>
<g class="st25">
	<path class="st27" d="M313.5,166.3L313,164c0-0.1-2.2-10.4-7.7-14l0.5-0.8c4.6,3,7,10.3,7.8,13.3c1.1-1.7,4.1-4.6,11.8-7.2l0.3,0.9
		C315,159.8,314,164,314,164L313.5,166.3z"/>
</g>
<g class="st25">
	<path class="st27" d="M318.5,144l-1-0.2c0.1-0.6,2.9-15.1-12.1-22.9l0.5-0.9c10.5,5.5,12.6,14.4,12.9,19.6
		c4-11,12.6-16.2,12.7-16.3l0.5,0.9C331.8,124.3,321.4,130.7,318.5,144z"/>
</g>
</svg>
